<svg width="141" height="38" viewBox="0 0 141 38" fill="none" xmlns="http://www.w3.org/2000/svg">
<path d="M20.9801 6.63636L17.5994 27H13.4233L7.28835 15.2472H7.14915L5.19034 27H0.268466L3.64915 6.63636H7.88494L13.9702 18.3693H14.1392L16.0682 6.63636H20.9801ZM27.8136 27.2884C26.2028 27.2884 24.8737 26.9569 23.8263 26.294C22.7856 25.6312 22.0531 24.7064 21.6289 23.5199C21.2047 22.3333 21.1218 20.9545 21.3803 19.3835C21.6388 17.8191 22.1725 16.447 22.9812 15.267C23.7899 14.0871 24.824 13.169 26.0835 12.5128C27.3429 11.8565 28.7714 11.5284 30.369 11.5284C31.9731 11.5284 33.2956 11.8598 34.3363 12.5227C35.3836 13.1856 36.1194 14.1103 36.5437 15.2969C36.9746 16.4834 37.0607 17.8655 36.8022 19.4432C36.5437 21.0076 36.0067 22.3797 35.1914 23.5597C34.3761 24.733 33.342 25.6477 32.0891 26.304C30.8363 26.9602 29.4111 27.2884 27.8136 27.2884ZM28.3604 23.6193C28.957 23.6193 29.4906 23.4403 29.9613 23.0824C30.4386 22.7244 30.8396 22.224 31.1644 21.581C31.4892 20.938 31.7212 20.1922 31.8604 19.3438C31.9996 18.5085 32.0129 17.776 31.9002 17.1463C31.7942 16.5099 31.5688 16.0161 31.2241 15.6648C30.8794 15.3068 30.4121 15.1278 29.8221 15.1278C29.2255 15.1278 28.6886 15.3101 28.2113 15.6747C27.734 16.0327 27.333 16.5331 27.0082 17.1761C26.69 17.8125 26.4613 18.5582 26.3221 19.4134C26.1829 20.2486 26.1663 20.9811 26.2724 21.6108C26.3784 22.2405 26.6071 22.7344 26.9585 23.0923C27.3098 23.4437 27.7771 23.6193 28.3604 23.6193ZM38.06 27L40.6055 11.7273H45.229L44.7717 14.5312H44.9407C45.4047 13.6032 46.061 12.8707 46.9094 12.3338C47.7579 11.7969 48.7058 11.5284 49.7532 11.5284C50.8072 11.5284 51.6656 11.8002 52.3285 12.3438C52.998 12.8873 53.3593 13.6165 53.4123 14.5312H53.5714C54.0089 13.6231 54.685 12.8973 55.5998 12.3537C56.5212 11.8035 57.5487 11.5284 58.6822 11.5284C60.114 11.5284 61.2044 11.9924 61.9535 12.9205C62.7092 13.8419 62.9511 15.108 62.6793 16.7188L60.9691 27H56.1168L57.668 17.8324C57.774 17.0701 57.6613 16.4901 57.3299 16.0923C57.0051 15.688 56.5311 15.4858 55.908 15.4858C55.2385 15.4858 54.6784 15.7012 54.2276 16.1321C53.7835 16.563 53.5084 17.1463 53.4023 17.8821L51.8612 27H47.1779L48.739 17.7827C48.8384 17.0734 48.729 16.5133 48.4109 16.1023C48.0993 15.6913 47.6254 15.4858 46.989 15.4858C46.5714 15.4858 46.1836 15.5885 45.8256 15.794C45.4677 15.9929 45.1661 16.2779 44.9208 16.6491C44.6822 17.0204 44.5264 17.4579 44.4535 17.9616L42.9222 27H38.06Z" fill="white"/>
<path d="M71.2003 17.9318L69.7088 27H66.7358L69.2812 11.7273H72.1349L71.7173 14.2131H71.9062C72.3902 13.3977 73.0497 12.7481 73.8849 12.2642C74.7268 11.7737 75.7211 11.5284 76.8679 11.5284C77.902 11.5284 78.7704 11.7472 79.473 12.1847C80.1823 12.6155 80.6828 13.2585 80.9744 14.1136C81.2727 14.9687 81.3191 16.026 81.1136 17.2855L79.483 27H76.5099L78.071 17.6435C78.25 16.5365 78.1042 15.6714 77.6335 15.0483C77.1695 14.4186 76.4304 14.1037 75.4162 14.1037C74.7268 14.1037 74.0871 14.2528 73.4972 14.5511C72.9138 14.8494 72.42 15.2869 72.0156 15.8636C71.6179 16.4337 71.3461 17.1231 71.2003 17.9318ZM89.9631 27.3082C88.5114 27.3082 87.2983 26.9768 86.3239 26.3139C85.3494 25.6444 84.6634 24.7098 84.2656 23.5099C83.8745 22.3035 83.8082 20.9015 84.0668 19.304C84.3187 17.7396 84.8258 16.3741 85.5881 15.2074C86.357 14.0407 87.3182 13.1359 88.4716 12.4929C89.6316 11.8499 90.9209 11.5284 92.3395 11.5284C93.7912 11.5284 95.0009 11.8632 95.9688 12.5327C96.9432 13.2022 97.6293 14.1402 98.027 15.3466C98.4247 16.553 98.4943 17.9583 98.2358 19.5625C97.9839 21.1136 97.4702 22.4725 96.6946 23.6392C95.9257 24.7992 94.9645 25.7008 93.8111 26.3438C92.6577 26.9867 91.375 27.3082 89.9631 27.3082ZM90.1321 24.8125C91.0866 24.8125 91.9186 24.5606 92.6278 24.0568C93.3438 23.553 93.9271 22.8835 94.3778 22.0483C94.8286 21.2131 95.1368 20.2983 95.3026 19.304C95.455 18.3428 95.4517 17.4645 95.2926 16.669C95.1402 15.867 94.8087 15.224 94.2983 14.7401C93.7879 14.2562 93.0786 14.0142 92.1705 14.0142C91.2159 14.0142 90.3774 14.2694 89.6548 14.7798C88.9389 15.2836 88.3556 15.9564 87.9048 16.7983C87.4607 17.6402 87.1591 18.5582 87 19.5526C86.8475 20.5071 86.8475 21.3854 87 22.1875C87.1525 22.983 87.4839 23.6193 87.9943 24.0966C88.5047 24.5739 89.2173 24.8125 90.1321 24.8125ZM100.341 27L102.887 11.7273H105.74L105.323 14.2131H105.512C105.976 13.3712 106.605 12.715 107.401 12.2443C108.203 11.767 109.111 11.5284 110.125 11.5284C111.133 11.5284 111.945 11.767 112.561 12.2443C113.185 12.7216 113.592 13.3778 113.784 14.2131H113.944C114.434 13.3911 115.12 12.7382 116.002 12.2543C116.883 11.7704 117.874 11.5284 118.975 11.5284C120.347 11.5284 121.401 11.9659 122.137 12.8409C122.879 13.7093 123.105 15.0152 122.813 16.7585L121.103 27H118.12L119.79 17.0369C119.956 15.9962 119.797 15.2472 119.313 14.7898C118.829 14.3258 118.196 14.0938 117.414 14.0938C116.446 14.0938 115.644 14.392 115.007 14.9886C114.371 15.5786 113.98 16.3376 113.834 17.2656L112.194 27H109.24L110.941 16.848C111.073 16.0128 110.921 15.3466 110.483 14.8494C110.052 14.3456 109.423 14.0938 108.594 14.0938C108.031 14.0938 107.484 14.2429 106.953 14.5412C106.43 14.8395 105.982 15.2505 105.611 15.7741C105.24 16.2978 104.998 16.901 104.885 17.5838L103.314 27H100.341ZM127.285 27.1889C126.728 27.1889 126.264 26.9967 125.893 26.6122C125.528 26.2277 125.349 25.7571 125.356 25.2003C125.362 24.6501 125.568 24.1894 125.972 23.8182C126.383 23.4403 126.861 23.2514 127.404 23.2514C127.948 23.2514 128.412 23.4437 128.796 23.8281C129.181 24.2126 129.36 24.67 129.333 25.2003C129.313 25.5715 129.207 25.9096 129.015 26.2145C128.829 26.5128 128.584 26.7514 128.279 26.9304C127.974 27.1027 127.643 27.1889 127.285 27.1889Z" fill="white"/>
</svg>
