<svg width="101" height="101" viewBox="0 0 101 101" fill="none" xmlns="http://www.w3.org/2000/svg">
<rect width="101" height="101" rx="15" fill="#162328"/>
<path d="M36.9801 25.6364L33.5994 46H29.4233L23.2884 34.2472H23.1491L21.1903 46H16.2685L19.6491 25.6364H23.8849L29.9702 37.3693H30.1392L32.0682 25.6364H36.9801ZM43.8136 46.2884C42.2028 46.2884 40.8737 45.9569 39.8263 45.294C38.7856 44.6312 38.0531 43.7064 37.6289 42.5199C37.2047 41.3333 37.1218 39.9545 37.3803 38.3835C37.6388 36.8191 38.1725 35.447 38.9812 34.267C39.7899 33.0871 40.824 32.169 42.0835 31.5128C43.3429 30.8565 44.7714 30.5284 46.369 30.5284C47.9731 30.5284 49.2956 30.8598 50.3363 31.5227C51.3836 32.1856 52.1194 33.1103 52.5437 34.2969C52.9746 35.4834 53.0607 36.8655 52.8022 38.4432C52.5437 40.0076 52.0067 41.3797 51.1914 42.5597C50.3761 43.733 49.342 44.6477 48.0891 45.304C46.8363 45.9602 45.4111 46.2884 43.8136 46.2884ZM44.3604 42.6193C44.957 42.6193 45.4906 42.4403 45.9613 42.0824C46.4386 41.7244 46.8396 41.224 47.1644 40.581C47.4892 39.938 47.7212 39.1922 47.8604 38.3438C47.9996 37.5085 48.0129 36.776 47.9002 36.1463C47.7942 35.5099 47.5688 35.0161 47.2241 34.6648C46.8794 34.3068 46.4121 34.1278 45.8221 34.1278C45.2255 34.1278 44.6886 34.3101 44.2113 34.6747C43.734 35.0327 43.333 35.5331 43.0082 36.1761C42.69 36.8125 42.4613 37.5582 42.3221 38.4134C42.1829 39.2486 42.1663 39.9811 42.2724 40.6108C42.3784 41.2405 42.6071 41.7344 42.9585 42.0923C43.3098 42.4437 43.7771 42.6193 44.3604 42.6193ZM54.06 46L56.6055 30.7273H61.229L60.7717 33.5312H60.9407C61.4047 32.6032 62.061 31.8707 62.9094 31.3338C63.7579 30.7969 64.7058 30.5284 65.7532 30.5284C66.8072 30.5284 67.6656 30.8002 68.3285 31.3438C68.998 31.8873 69.3593 32.6165 69.4123 33.5312H69.5714C70.0089 32.6231 70.685 31.8973 71.5998 31.3537C72.5212 30.8035 73.5487 30.5284 74.6822 30.5284C76.114 30.5284 77.2044 30.9924 77.9535 31.9205C78.7092 32.8419 78.9511 34.108 78.6793 35.7188L76.9691 46H72.1168L73.668 36.8324C73.774 36.0701 73.6613 35.4901 73.3299 35.0923C73.0051 34.688 72.5311 34.4858 71.908 34.4858C71.2385 34.4858 70.6784 34.7012 70.2276 35.1321C69.7835 35.563 69.5084 36.1463 69.4023 36.8821L67.8612 46H63.1779L64.739 36.7827C64.8384 36.0734 64.729 35.5133 64.4109 35.1023C64.0993 34.6913 63.6254 34.4858 62.989 34.4858C62.5714 34.4858 62.1836 34.5885 61.8256 34.794C61.4677 34.9929 61.1661 35.2779 60.9208 35.6491C60.6822 36.0204 60.5264 36.4579 60.4535 36.9616L58.9222 46H54.06Z" fill="#C0BC3F"/>
<path d="M21.2003 67.9318L19.7088 77H16.7358L19.2812 61.7273H22.1349L21.7173 64.2131H21.9062C22.3902 63.3977 23.0497 62.7481 23.8849 62.2642C24.7268 61.7737 25.7211 61.5284 26.8679 61.5284C27.902 61.5284 28.7704 61.7472 29.473 62.1847C30.1823 62.6155 30.6828 63.2585 30.9744 64.1136C31.2727 64.9687 31.3191 66.026 31.1136 67.2855L29.483 77H26.5099L28.071 67.6435C28.25 66.5365 28.1042 65.6714 27.6335 65.0483C27.1695 64.4186 26.4304 64.1037 25.4162 64.1037C24.7268 64.1037 24.0871 64.2528 23.4972 64.5511C22.9138 64.8494 22.42 65.2869 22.0156 65.8636C21.6179 66.4337 21.3461 67.1231 21.2003 67.9318ZM39.9631 77.3082C38.5114 77.3082 37.2983 76.9768 36.3239 76.3139C35.3494 75.6444 34.6634 74.7098 34.2656 73.5099C33.8745 72.3035 33.8082 70.9015 34.0668 69.304C34.3187 67.7396 34.8258 66.3741 35.5881 65.2074C36.357 64.0407 37.3182 63.1359 38.4716 62.4929C39.6316 61.8499 40.9209 61.5284 42.3395 61.5284C43.7912 61.5284 45.0009 61.8632 45.9688 62.5327C46.9432 63.2022 47.6293 64.1402 48.027 65.3466C48.4247 66.553 48.4943 67.9583 48.2358 69.5625C47.9839 71.1136 47.4702 72.4725 46.6946 73.6392C45.9257 74.7992 44.9645 75.7008 43.8111 76.3438C42.6577 76.9867 41.375 77.3082 39.9631 77.3082ZM40.1321 74.8125C41.0866 74.8125 41.9186 74.5606 42.6278 74.0568C43.3438 73.553 43.9271 72.8835 44.3778 72.0483C44.8286 71.2131 45.1368 70.2983 45.3026 69.304C45.455 68.3428 45.4517 67.4645 45.2926 66.669C45.1402 65.867 44.8087 65.224 44.2983 64.7401C43.7879 64.2562 43.0786 64.0142 42.1705 64.0142C41.2159 64.0142 40.3774 64.2694 39.6548 64.7798C38.9389 65.2836 38.3556 65.9564 37.9048 66.7983C37.4607 67.6402 37.1591 68.5582 37 69.5526C36.8475 70.5071 36.8475 71.3854 37 72.1875C37.1525 72.983 37.4839 73.6193 37.9943 74.0966C38.5047 74.5739 39.2173 74.8125 40.1321 74.8125ZM50.3413 77L52.8867 61.7273H55.7404L55.3228 64.2131H55.5117C55.9757 63.3712 56.6055 62.715 57.4009 62.2443C58.203 61.767 59.1112 61.5284 60.1254 61.5284C61.1329 61.5284 61.945 61.767 62.5614 62.2443C63.1845 62.7216 63.5922 63.3778 63.7844 64.2131H63.9435C64.4341 63.3911 65.1201 62.7382 66.0018 62.2543C66.8834 61.7704 67.8744 61.5284 68.9748 61.5284C70.3469 61.5284 71.4009 61.9659 72.1367 62.8409C72.8791 63.7093 73.1045 65.0152 72.8129 66.7585L71.1026 77H68.1197L69.7901 67.0369C69.9558 65.9962 69.7968 65.2472 69.3129 64.7898C68.829 64.3258 68.1959 64.0938 67.4137 64.0938C66.4459 64.0938 65.6438 64.392 65.0075 64.9886C64.3711 65.5786 63.98 66.3376 63.8342 67.2656L62.1935 77H59.2404L60.9407 66.848C61.0733 66.0128 60.9208 65.3466 60.4833 64.8494C60.0524 64.3456 59.4227 64.0938 58.5941 64.0938C58.0307 64.0938 57.4838 64.2429 56.9535 64.5412C56.4298 64.8395 55.9824 65.2505 55.6112 65.7741C55.2399 66.2978 54.998 66.901 54.8853 67.5838L53.3143 77H50.3413ZM77.2848 77.1889C76.728 77.1889 76.264 76.9967 75.8928 76.6122C75.5282 76.2277 75.3492 75.7571 75.3558 75.2003C75.3625 74.6501 75.5679 74.1894 75.9723 73.8182C76.3833 73.4403 76.8606 73.2514 77.4041 73.2514C77.9477 73.2514 78.4117 73.4437 78.7962 73.8281C79.1806 74.2126 79.3596 74.67 79.3331 75.2003C79.3132 75.5715 79.2071 75.9096 79.0149 76.2145C78.8293 76.5128 78.584 76.7514 78.2791 76.9304C77.9742 77.1027 77.6428 77.1889 77.2848 77.1889Z" fill="#C0BC3F"/>
</svg>
