<svg width="101" height="101" viewBox="0 0 101 101" fill="none" xmlns="http://www.w3.org/2000/svg">
<rect width="101" height="101" rx="15" fill="#C0BC3F"/>
<path d="M38.9801 25.6364L35.5994 46H31.4233L25.2884 34.2472H25.1491L23.1903 46H18.2685L21.6491 25.6364H25.8849L31.9702 37.3693H32.1392L34.0682 25.6364H38.9801ZM45.8136 46.2884C44.2028 46.2884 42.8737 45.9569 41.8263 45.294C40.7856 44.6312 40.0531 43.7064 39.6289 42.5199C39.2047 41.3333 39.1218 39.9545 39.3803 38.3835C39.6388 36.8191 40.1725 35.447 40.9812 34.267C41.7899 33.0871 42.824 32.169 44.0835 31.5128C45.3429 30.8565 46.7714 30.5284 48.369 30.5284C49.9731 30.5284 51.2956 30.8598 52.3363 31.5227C53.3836 32.1856 54.1194 33.1103 54.5437 34.2969C54.9746 35.4834 55.0607 36.8655 54.8022 38.4432C54.5437 40.0076 54.0067 41.3797 53.1914 42.5597C52.3761 43.733 51.342 44.6477 50.0891 45.304C48.8363 45.9602 47.4111 46.2884 45.8136 46.2884ZM46.3604 42.6193C46.957 42.6193 47.4906 42.4403 47.9613 42.0824C48.4386 41.7244 48.8396 41.224 49.1644 40.581C49.4892 39.938 49.7212 39.1922 49.8604 38.3438C49.9996 37.5085 50.0129 36.776 49.9002 36.1463C49.7942 35.5099 49.5688 35.0161 49.2241 34.6648C48.8794 34.3068 48.4121 34.1278 47.8221 34.1278C47.2255 34.1278 46.6886 34.3101 46.2113 34.6747C45.734 35.0327 45.333 35.5331 45.0082 36.1761C44.69 36.8125 44.4613 37.5582 44.3221 38.4134C44.1829 39.2486 44.1663 39.9811 44.2724 40.6108C44.3784 41.2405 44.6071 41.7344 44.9585 42.0923C45.3098 42.4437 45.7771 42.6193 46.3604 42.6193ZM56.06 46L58.6055 30.7273H63.229L62.7717 33.5312H62.9407C63.4047 32.6032 64.061 31.8707 64.9094 31.3338C65.7579 30.7969 66.7058 30.5284 67.7532 30.5284C68.8072 30.5284 69.6656 30.8002 70.3285 31.3438C70.998 31.8873 71.3593 32.6165 71.4123 33.5312H71.5714C72.0089 32.6231 72.685 31.8973 73.5998 31.3537C74.5212 30.8035 75.5487 30.5284 76.6822 30.5284C78.114 30.5284 79.2044 30.9924 79.9535 31.9205C80.7092 32.8419 80.9511 34.108 80.6793 35.7188L78.9691 46H74.1168L75.668 36.8324C75.774 36.0701 75.6613 35.4901 75.3299 35.0923C75.0051 34.688 74.5311 34.4858 73.908 34.4858C73.2385 34.4858 72.6784 34.7012 72.2276 35.1321C71.7835 35.563 71.5084 36.1463 71.4023 36.8821L69.8612 46H65.1779L66.739 36.7827C66.8384 36.0734 66.729 35.5133 66.4109 35.1023C66.0993 34.6913 65.6254 34.4858 64.989 34.4858C64.5714 34.4858 64.1836 34.5885 63.8256 34.794C63.4677 34.9929 63.1661 35.2779 62.9208 35.6491C62.6822 36.0204 62.5264 36.4579 62.4535 36.9616L60.9222 46H56.06Z" fill="#162328"/>
<path d="M23.2003 67.9318L21.7088 77H18.7358L21.2812 61.7273H24.1349L23.7173 64.2131H23.9062C24.3902 63.3977 25.0497 62.7481 25.8849 62.2642C26.7268 61.7737 27.7211 61.5284 28.8679 61.5284C29.902 61.5284 30.7704 61.7472 31.473 62.1847C32.1823 62.6155 32.6828 63.2585 32.9744 64.1136C33.2727 64.9687 33.3191 66.026 33.1136 67.2855L31.483 77H28.5099L30.071 67.6435C30.25 66.5365 30.1042 65.6714 29.6335 65.0483C29.1695 64.4186 28.4304 64.1037 27.4162 64.1037C26.7268 64.1037 26.0871 64.2528 25.4972 64.5511C24.9138 64.8494 24.42 65.2869 24.0156 65.8636C23.6179 66.4337 23.3461 67.1231 23.2003 67.9318ZM41.9631 77.3082C40.5114 77.3082 39.2983 76.9768 38.3239 76.3139C37.3494 75.6444 36.6634 74.7098 36.2656 73.5099C35.8745 72.3035 35.8082 70.9015 36.0668 69.304C36.3187 67.7396 36.8258 66.3741 37.5881 65.2074C38.357 64.0407 39.3182 63.1359 40.4716 62.4929C41.6316 61.8499 42.9209 61.5284 44.3395 61.5284C45.7912 61.5284 47.0009 61.8632 47.9688 62.5327C48.9432 63.2022 49.6293 64.1402 50.027 65.3466C50.4247 66.553 50.4943 67.9583 50.2358 69.5625C49.9839 71.1136 49.4702 72.4725 48.6946 73.6392C47.9257 74.7992 46.9645 75.7008 45.8111 76.3438C44.6577 76.9867 43.375 77.3082 41.9631 77.3082ZM42.1321 74.8125C43.0866 74.8125 43.9186 74.5606 44.6278 74.0568C45.3438 73.553 45.9271 72.8835 46.3778 72.0483C46.8286 71.2131 47.1368 70.2983 47.3026 69.304C47.455 68.3428 47.4517 67.4645 47.2926 66.669C47.1402 65.867 46.8087 65.224 46.2983 64.7401C45.7879 64.2562 45.0786 64.0142 44.1705 64.0142C43.2159 64.0142 42.3774 64.2694 41.6548 64.7798C40.9389 65.2836 40.3556 65.9564 39.9048 66.7983C39.4607 67.6402 39.1591 68.5582 39 69.5526C38.8475 70.5071 38.8475 71.3854 39 72.1875C39.1525 72.983 39.4839 73.6193 39.9943 74.0966C40.5047 74.5739 41.2173 74.8125 42.1321 74.8125ZM52.3413 77L54.8867 61.7273H57.7404L57.3228 64.2131H57.5117C57.9757 63.3712 58.6055 62.715 59.4009 62.2443C60.203 61.767 61.1112 61.5284 62.1254 61.5284C63.1329 61.5284 63.945 61.767 64.5614 62.2443C65.1845 62.7216 65.5922 63.3778 65.7844 64.2131H65.9435C66.4341 63.3911 67.1201 62.7382 68.0018 62.2543C68.8834 61.7704 69.8744 61.5284 70.9748 61.5284C72.3469 61.5284 73.4009 61.9659 74.1367 62.8409C74.8791 63.7093 75.1045 65.0152 74.8129 66.7585L73.1026 77H70.1197L71.7901 67.0369C71.9558 65.9962 71.7968 65.2472 71.3129 64.7898C70.829 64.3258 70.1959 64.0938 69.4137 64.0938C68.4459 64.0938 67.6438 64.392 67.0075 64.9886C66.3711 65.5786 65.98 66.3376 65.8342 67.2656L64.1935 77H61.2404L62.9407 66.848C63.0733 66.0128 62.9208 65.3466 62.4833 64.8494C62.0524 64.3456 61.4227 64.0938 60.5941 64.0938C60.0307 64.0938 59.4838 64.2429 58.9535 64.5412C58.4298 64.8395 57.9824 65.2505 57.6112 65.7741C57.2399 66.2978 56.998 66.901 56.8853 67.5838L55.3143 77H52.3413ZM79.2848 77.1889C78.728 77.1889 78.264 76.9967 77.8928 76.6122C77.5282 76.2277 77.3492 75.7571 77.3558 75.2003C77.3625 74.6501 77.5679 74.1894 77.9723 73.8182C78.3833 73.4403 78.8606 73.2514 79.4041 73.2514C79.9477 73.2514 80.4117 73.4437 80.7962 73.8281C81.1806 74.2126 81.3596 74.67 81.3331 75.2003C81.3132 75.5715 81.2071 75.9096 81.0149 76.2145C80.8293 76.5128 80.584 76.7514 80.2791 76.9304C79.9742 77.1027 79.6428 77.1889 79.2848 77.1889Z" fill="#162328"/>
</svg>
